<?xml version="1.0" encoding="UTF-8" standalone="no"?>
<svg
   xmlns:dc="http://purl.org/dc/elements/1.1/"
   xmlns:cc="http://creativecommons.org/ns#"
   xmlns:rdf="http://www.w3.org/1999/02/22-rdf-syntax-ns#"
   xmlns:svg="http://www.w3.org/2000/svg"
   xmlns="http://www.w3.org/2000/svg"
   width="207.681"
   height="357.784"
   viewBox="-15 0 64.657264 94.66368"
   version="1.1"
   id="svg8">
  <defs
     id="defs2" />
  <metadata
     id="metadata5">
    <rdf:RDF>
      <cc:Work
         rdf:about="">
        <dc:format>image/svg+xml</dc:format>
        <dc:type
           rdf:resource="http://purl.org/dc/dcmitype/StillImage" />
        <dc:title></dc:title>
      </cc:Work>
    </rdf:RDF>
  </metadata>
  <g
     id="layer1">
    <path
       id="path4529"
       d="m 5.0640549,8.0481964 c 0.06482,-0.145275 0.348606,-3.9500106 0.879995,-4.3345976 0.531388,-0.384587 2.433629,2.710356 2.433629,2.710356"
       style="fill:none;fill-opacity:1;stroke:#000000;stroke-width:2.66499996;stroke-linecap:round;stroke-linejoin:miter;stroke-miterlimit:4;stroke-dasharray:none;stroke-opacity:1" />
    <path
       id="path4539"
       d="M 5.0640549,8.0481964 Z"
       style="fill:none;stroke:#000000;stroke-width:0.26458332px;stroke-linecap:butt;stroke-linejoin:miter;stroke-opacity:1" />
    <path
       id="path4529-4"
       d="m 25.565968,5.9602017 c -0.06482,-0.145275 -0.481813,-3.270653 -1.013202,-3.65524 -0.531388,-0.3845869 -2.047328,2.470583 -2.047328,2.470583"
       style="fill:none;fill-opacity:1;stroke:#000000;stroke-width:2.66499996;stroke-linecap:round;stroke-linejoin:miter;stroke-miterlimit:4;stroke-dasharray:none;stroke-opacity:1" />
    <path
       id="path4558"
       d="m 16.224571,21.675416 -0.01884,-3.485102"
       style="fill:none;stroke:#000000;stroke-width:2.665;stroke-linecap:round;stroke-linejoin:miter;stroke-miterlimit:4;stroke-dasharray:none;stroke-opacity:1" />
    <path
       id="path4558-3"
       d="m 27.725403,20.045896 c -0.03415,-1.175185 -0.07193,-2.26817 -0.301415,-3.296717"
       style="fill:none;stroke:#000000;stroke-width:2.66499996;stroke-linecap:round;stroke-linejoin:miter;stroke-miterlimit:4;stroke-dasharray:none;stroke-opacity:1" />
    <path
       id="path4575"
       d="m 37.154012,9.7130444 c 2.841001,8.9743946 4.415194,23.0858026 3.390907,26.3737326 -1.024286,3.287931 -14.99565,5.624576 -24.339185,7.233939 C 6.8581979,47.40298 2.5731019,93.033724 2.4114679,93.339654 c -0.161635,0.30593 27.5028151,-4.56557 33.9984291,-4.44889"
       style="fill:none;stroke:#000000;stroke-width:2.66499996;stroke-linecap:round;stroke-linejoin:miter;stroke-miterlimit:4;stroke-dasharray:none;stroke-opacity:1" />
    <path
       id="path4577"
       d="m 12.062409,48.172069 c 9.063587,12.214804 16.902815,28.593336 33.582416,37.885455 3.232534,1.47605 3.869865,4.21392 0.09354,4.63044 -14.107523,1.16739 -22.98343,-14.919579 -28.437477,-21.65551"
       style="fill:none;stroke:#000000;stroke-width:2.66499996;stroke-linecap:round;stroke-linejoin:miter;stroke-miterlimit:4;stroke-dasharray:none;stroke-opacity:1" />
    <path
       id="path4927"
       d="m -10.191965,6.2777134 c 0.4510568,-2.3372432 4.6432263,-7.8306223 5.8805376,-5.82300653 0,0 3.73570545,6.65937413 3.31923997,12.84581413 C 16.754628,12.770131 24.611716,12.636138 37.240104,8.1411455 c 0,0 -8.8159,-7.33896426 -17.925521,-11.4432285 -9.109621,-4.1042642 -34.782256,-8.051297 -29.506548,9.5797964 z"
       style="fill:#ff3838;stroke:#000000;stroke-width:2;stroke-linecap:round;stroke-linejoin:round;stroke-miterlimit:4;stroke-dasharray:none;stroke-opacity:1;fill-opacity:1" />
    <ellipse
       ry="2.8863688"
       rx="3.0734575"
       cy="7.2131567"
       cx="-10.566141"
       id="path4929"
       style="fill:#000000;fill-opacity:1;stroke:none;stroke-width:3.31136274;stroke-linecap:round;stroke-linejoin:round;stroke-miterlimit:4;stroke-dasharray:none;stroke-dashoffset:0;stroke-opacity:1" />
    <path
       id="path4923"
       d="M -0.28758161,13.108957 C 14.43043,15.695316 27.684852,14.085272 36.400655,8.3308563"
       style="fill:none;stroke:#000000;stroke-width:4.66499996;stroke-linecap:round;stroke-linejoin:round;stroke-miterlimit:4;stroke-dasharray:none;stroke-opacity:1" />
    <path
       id="path4961"
       d="m 14.03165,48.172068 c 0,0 -3.605621,2.787348 -5.332027,5.893295 C 6.9732167,57.171311 4.4319514,61.362801 2.8998742,66.039038 1.3677971,70.715275 0.46772166,80.444863 0.46772166,80.444863 L 10.944687,79.415876 c 0,0 0.80588,-8.878762 1.870887,-13.18975 1.088097,-4.404459 4.583672,-12.815573 4.583672,-12.815573 z"
       style="fill:#ff3838;stroke:#030303;stroke-width:2;stroke-linecap:round;stroke-linejoin:round;stroke-miterlimit:4;stroke-dasharray:none;stroke-opacity:1;fill-opacity:1" />
  </g>
</svg>
