<?xml version="1.0" encoding="UTF-8" standalone="no"?>
<svg
   xmlns:dc="http://purl.org/dc/elements/1.1/"
   xmlns:cc="http://creativecommons.org/ns#"
   xmlns:rdf="http://www.w3.org/1999/02/22-rdf-syntax-ns#"
   xmlns:svg="http://www.w3.org/2000/svg"
   xmlns="http://www.w3.org/2000/svg"
   width="187.681"
   height="357.784"
   viewBox="0 0 49.657264 94.66368"
   version="1.1"
   id="svg8">
  <defs
     id="defs2" />
  <metadata
     id="metadata5">
    <rdf:RDF>
      <cc:Work
         rdf:about="">
        <dc:format>image/svg+xml</dc:format>
        <dc:type
           rdf:resource="http://purl.org/dc/dcmitype/StillImage" />
        <dc:title></dc:title>
      </cc:Work>
    </rdf:RDF>
  </metadata>
  <g
     transform="translate(0,-0.02408935)">
    <path
       id="path4529"
       d="m 1.3403119,9.3568054 c 0.06482,-0.145275 0.348606,-3.950011 0.879995,-4.334598 0.531388,-0.384587 2.433629,2.710356 2.433629,2.710356"
       style="fill:none;fill-opacity:1;stroke:#000000;stroke-width:2.66499996;stroke-linecap:round;stroke-linejoin:miter;stroke-miterlimit:4;stroke-dasharray:none;stroke-opacity:1" />
    <path
       id="path4539"
       d="M 5.0640549,8.0481964 Z"
       style="fill:none;stroke:#000000;stroke-width:0.26458332px;stroke-linecap:butt;stroke-linejoin:miter;stroke-opacity:1" />
    <path
       id="path4529-4"
       d="m 27.717488,5.0247584 c -0.06482,-0.145275 -0.481813,-3.270653 -1.013202,-3.65524 -0.531388,-0.38458695 -2.047328,2.470583 -2.047328,2.470583"
       style="fill:none;fill-opacity:1;stroke:#000000;stroke-width:2.66499996;stroke-linecap:round;stroke-linejoin:miter;stroke-miterlimit:4;stroke-dasharray:none;stroke-opacity:1" />
    <path
       id="path4558"
       d="m 16.224571,21.675416 -0.01884,-3.485102"
       style="fill:none;stroke:#000000;stroke-width:2.66499996;stroke-linecap:round;stroke-linejoin:miter;stroke-miterlimit:4;stroke-dasharray:none;stroke-opacity:1" />
    <path
       id="path4558-3"
       d="m 27.725403,20.045896 c -0.03415,-1.175185 -0.07193,-2.26817 -0.301415,-3.296717"
       style="fill:none;stroke:#000000;stroke-width:2.66499996;stroke-linecap:round;stroke-linejoin:miter;stroke-miterlimit:4;stroke-dasharray:none;stroke-opacity:1" />
    <path
       id="path4575"
       d="m 37.154012,9.7130444 c 2.841001,8.9743946 4.415194,23.0858026 3.390907,26.3737326 -1.024286,3.287931 -14.99565,5.624576 -24.339185,7.233939 C 6.8581979,47.40298 2.5731019,93.033724 2.4114679,93.339654 c -0.161635,0.30593 27.5028151,-4.56557 33.9984291,-4.44889"
       style="fill:none;stroke:#000000;stroke-width:2.66499996;stroke-linecap:round;stroke-linejoin:miter;stroke-miterlimit:4;stroke-dasharray:none;stroke-opacity:1" />
    <path
       id="path4577"
       d="m 12.062409,48.172069 c 9.063587,12.214804 16.902815,28.593336 33.582416,37.885455 3.232534,1.47605 3.869865,4.21392 0.09354,4.63044 -14.107523,1.16739 -22.98343,-14.919579 -28.437477,-21.65551"
       style="fill:none;stroke:#000000;stroke-width:2.66499996;stroke-linecap:round;stroke-linejoin:miter;stroke-miterlimit:4;stroke-dasharray:none;stroke-opacity:1" />
    <path
       id="path4529-7"
       d="m 19.662896,27.983477 c -0.05651,0.06169 -0.830938,1.91255 -1.160002,2.016019 -0.329063,0.103469 -0.76323,-1.756911 -0.76323,-1.756911"
       style="fill:none;fill-opacity:1;stroke:#000000;stroke-width:1.05173612;stroke-linecap:round;stroke-linejoin:miter;stroke-miterlimit:4;stroke-dasharray:none;stroke-opacity:1" />
    <path
       id="path4529-7-9"
       d="m 26.746145,27.211336 c -0.05455,0.06343 -0.770525,1.937679 -1.096181,2.051421 -0.325654,0.113742 -0.817975,-1.732101 -0.817975,-1.732101"
       style="fill:none;fill-opacity:1;stroke:#000000;stroke-width:1.05173612;stroke-linecap:round;stroke-linejoin:miter;stroke-miterlimit:4;stroke-dasharray:none;stroke-opacity:1" />
    <path
       id="path4529-0"
       d="m 15.273617,14.199398 c 0,0 6.148355,2.733935 6.679744,3.118522 0.531388,0.384587 4.678693,-4.394154 4.678693,-4.394154"
       style="fill:none;fill-opacity:1;stroke:#000000;stroke-width:2.66499996;stroke-linecap:round;stroke-linejoin:miter;stroke-miterlimit:4;stroke-dasharray:none;stroke-opacity:1" />
    <path
       id="path4921"
       d="M 16.453151,27.773166 28.062995,26.741412"
       style="fill:none;stroke:#000000;stroke-width:1;stroke-linecap:round;stroke-linejoin:round;stroke-miterlimit:4;stroke-dasharray:none;stroke-opacity:1" />
  </g>
</svg>
