<?xml version="1.0" encoding="UTF-8" standalone="no"?>
<svg
   xmlns:dc="http://purl.org/dc/elements/1.1/"
   xmlns:cc="http://creativecommons.org/ns#"
   xmlns:rdf="http://www.w3.org/1999/02/22-rdf-syntax-ns#"
   xmlns:svg="http://www.w3.org/2000/svg"
   xmlns="http://www.w3.org/2000/svg"
   width="187.681"
   height="357.784"
   viewBox="0 0 49.657264 94.66368"
   version="1.1"
   id="svg8">
  <defs
     id="defs2" />
  <metadata
     id="metadata5">
    <rdf:RDF>
      <cc:Work
         rdf:about="">
        <dc:format>image/svg+xml</dc:format>
        <dc:type
           rdf:resource="http://purl.org/dc/dcmitype/StillImage" />
        <dc:title></dc:title>
      </cc:Work>
    </rdf:RDF>
  </metadata>
  <g
     transform="translate(0,-0.02285005)"
     id="layer1"
     style="stroke:#ffffff;stroke-opacity:1">
    <path
       style="fill:none;fill-opacity:1;stroke:#ffffff;stroke-width:2.66499996;stroke-linecap:round;stroke-linejoin:miter;stroke-miterlimit:4;stroke-dasharray:none;stroke-opacity:1"
       d="m 1.3403119,9.3568054 c 0.3781724,0.05057 2.4759267,0.4436057 2.717713,-0.121983 0.2578458,-0.603155 0.595911,-1.502259 0.595911,-1.502259"
       id="path4529" />
    <path
       style="fill:none;stroke:#ffffff;stroke-width:0.26458332px;stroke-linecap:butt;stroke-linejoin:miter;stroke-opacity:1"
       d="M 5.0640549,8.0481964 Z"
       id="path4539" />
    <path
       style="fill:none;fill-opacity:1;stroke:#ffffff;stroke-width:2.66499996;stroke-linecap:round;stroke-linejoin:miter;stroke-miterlimit:4;stroke-dasharray:none;stroke-opacity:1"
       d="M 27.717488,5.0247584 C 27.652668,4.8794834 26.019954,5.6557221 25.488565,5.2711351 24.957177,4.8865481 24.656958,3.8401014 24.656958,3.8401014"
       id="path4529-4" />
    <path
       style="fill:none;stroke:#ffffff;stroke-width:2.66488329;stroke-linecap:round;stroke-linejoin:round;stroke-miterlimit:4;stroke-dasharray:none;stroke-opacity:1"
       d="m 14.585249,21.615441 1.620482,-3.425127 1.775633,3.439859"
       id="path4558" />
    <path
       style="fill:none;stroke:#ffffff;stroke-width:2.66499996;stroke-linecap:round;stroke-linejoin:miter;stroke-miterlimit:4;stroke-dasharray:none;stroke-opacity:1"
       d="m 37.154012,9.7130444 c 2.841001,8.9743946 4.415194,23.0858026 3.390907,26.3737326 -1.024286,3.287931 -14.99565,5.624576 -24.339185,7.233939 C 6.8581979,47.40298 2.5731019,93.033724 2.4114679,93.339654 c -0.161635,0.30593 27.5028151,-4.56557 33.9984291,-4.44889"
       id="path4575" />
    <path
       style="fill:none;stroke:#ffffff;stroke-width:2.66499996;stroke-linecap:round;stroke-linejoin:miter;stroke-miterlimit:4;stroke-dasharray:none;stroke-opacity:1"
       d="m 12.062409,48.172069 c 9.063587,12.214804 16.902815,28.593336 33.582416,37.885455 3.232534,1.47605 3.869865,4.21392 0.09354,4.63044 -14.107523,1.16739 -22.98343,-14.919579 -28.437477,-21.65551"
       id="path4577" />
  </g>
  <path
     style="fill:none;stroke:#ffffff;stroke-width:2.66488338;stroke-linecap:round;stroke-linejoin:round;stroke-miterlimit:4;stroke-dasharray:none;stroke-opacity:1"
     d="m 26.348054,20.476739 1.620482,-3.425127 1.832178,3.326769"
     id="path4558-5" />
</svg>
