<?xml version="1.0" encoding="UTF-8" standalone="no"?>
<!-- Created with Inkscape (http://www.inkscape.org/) -->

<svg
   xmlns:osb="http://www.openswatchbook.org/uri/2009/osb"
   xmlns:dc="http://purl.org/dc/elements/1.1/"
   xmlns:cc="http://creativecommons.org/ns#"
   xmlns:rdf="http://www.w3.org/1999/02/22-rdf-syntax-ns#"
   xmlns:svg="http://www.w3.org/2000/svg"
   xmlns="http://www.w3.org/2000/svg"
   xmlns:sodipodi="http://sodipodi.sourceforge.net/DTD/sodipodi-0.dtd"
   xmlns:inkscape="http://www.inkscape.org/namespaces/inkscape"
   version="1.1"
   id="svg3713"
   width="630"
   height="280"
   viewBox="0 0 630 280"
   sodipodi:docname="onlineLogo.svg"
   inkscape:version="0.92.4 (5da689c313, 2019-01-14)">
  <metadata
     id="metadata3719">
    <rdf:RDF>
      <cc:Work
         rdf:about="">
        <dc:format>image/svg+xml</dc:format>
        <dc:type
           rdf:resource="http://purl.org/dc/dcmitype/StillImage" />
        <dc:title></dc:title>
      </cc:Work>
    </rdf:RDF>
  </metadata>
  <defs
     id="defs3717">
    <linearGradient
       inkscape:collect="always"
       id="linearGradient6039"
       osb:paint="gradient">
      <stop
         style="stop-color:#000000;stop-opacity:1;"
         offset="0"
         id="stop6035" />
      <stop
         style="stop-color:#000000;stop-opacity:0;"
         offset="1"
         id="stop6037" />
    </linearGradient>
    <linearGradient
       id="linearGradient4571"
       osb:paint="solid">
      <stop
         style="stop-color:#000000;stop-opacity:1;"
         offset="0"
         id="stop4569" />
    </linearGradient>
    <inkscape:perspective
       sodipodi:type="inkscape:persp3d"
       inkscape:vp_x="633.21094 : 43.68059 : 1"
       inkscape:vp_y="0 : 1000 : 0"
       inkscape:vp_z="-103.98957 : 85.151447 : 1"
       inkscape:persp3d-origin="315 : 93.333333 : 1"
       id="perspective3731" />
  </defs>
  <sodipodi:namedview
     pagecolor="#ffffff"
     bordercolor="#666666"
     borderopacity="1"
     objecttolerance="10"
     gridtolerance="10"
     guidetolerance="10"
     inkscape:pageopacity="0"
     inkscape:pageshadow="2"
     inkscape:window-width="2560"
     inkscape:window-height="1057"
     id="namedview3715"
     showgrid="false"
     inkscape:zoom="1"
     inkscape:cx="188.30582"
     inkscape:cy="69.604784"
     inkscape:window-x="-8"
     inkscape:window-y="-8"
     inkscape:window-maximized="1"
     inkscape:current-layer="svg3713" />
  <path
     style="fill:#005aff;fill-opacity:1;stroke:none;stroke-width:1px;stroke-linecap:butt;stroke-linejoin:miter;stroke-opacity:1"
     d="m 362.98148,81.564178 c 31.77827,-42.518355 26.83649,-49.860532 26.30947,-49.497474 -13.11001,9.03134 -27.03283,24.55148 -38.79532,36.119778 v 0.445923 c 10.59067,14.659726 11.52114,14.222527 12.48585,12.931773 z"
     id="path3729"
     inkscape:connector-curvature="0"
     sodipodi:nodetypes="ssccs" />
  <path
     style="fill:#005aff;fill-opacity:1;stroke:none;stroke-width:1px;stroke-linecap:butt;stroke-linejoin:miter;stroke-opacity:1"
     d="m 330.41016,10.320312 c -0.22391,0.01039 -0.42865,0.09565 -0.61133,0.265626 -2.02908,2.662777 -41.79985,81.177223 -62.24414,122.705082 -62.33701,59.88662 -34.72392,22.57529 -19.6211,-13.82422 0,0 -1.99775,-13.47144 -8.47265,-12.48438 -6.4749,0.98705 -31.21485,21.84961 -31.21485,21.84961 0,0 8.81592,-13.02377 7.58008,-20.06641 -0.94744,-5.39911 -5.74123,-14.05615 -10.70117,-12.486323 -19.92225,6.305413 -97.17633,74.131343 -72.68555,34.783203 9.69057,-15.56936 17.09088,-27.63471 12.01563,-32.527344 -7.75133,-7.472426 -30.1912,9.364534 -35.65039,58.390624 C 45.319073,277.58986 -9.9199076,269.1135 67.78125,143.54688 145.4824,17.980249 134.22266,65.511719 134.22266,65.511719 l -3.1211,29.429687 C 140.83586,83.263582 156.85348,50.80983 138.68164,44.552734 120.50981,38.295638 117.98781,40.304245 115.93945,42.322266 66.381817,91.145907 -11.551784,215.06987 18.283203,251.46094 c 29.834987,36.39107 71.383641,-55.53007 94.089847,-88.73828 0,0 2.32042,5.8656 7.13476,6.6875 4.42823,0.75598 47.06945,-41.59736 73.57617,-58.41602 24.02401,-16.50243 -17.37628,47.51683 -22.29492,66.44336 0,0 5.18361,10.93745 9.36328,11.14844 4.17967,0.21099 26.78883,-55.8762 47.26758,-62.875 3.58249,-1.22435 -22.45572,49.97609 -21.84961,54.40234 0.60611,4.42625 6.65934,10.63038 10.44141,10.70117 3.78207,0.0708 23.28365,-26.5953 39.50195,-38.34765 1.8333,-1.32848 3.65073,-3.68119 5.92774,-2.04492 2.27702,1.63626 -10.02711,23.20165 -9.125,32.34374 0.47523,4.81602 8.01216,10.73314 12.64843,5.65821 4.63627,-5.07493 63.40082,-74.91624 67.24805,-68.50977 2.2924,3.81733 -20.95239,46.38005 -20.06641,49.94336 2.73531,11.00114 9.69218,12.00618 13.2793,6.15625 1.40416,-2.28993 51.08134,-60.83897 66.5957,-70.5 4.95285,-3.08422 -28.76969,57.97791 -26.17968,60.80664 8.1386,8.88875 7.98224,12.3575 10.59375,8.62696 4.4169,-6.30954 11.68423,-35.90129 62.88476,-71.64063 4.21179,-2.93994 -28.22217,57.4281 -30.14843,64.21289 -1.10566,3.89438 10.03673,15.24719 12.2246,13.03906 17.97534,-18.14176 26.0353,-28.53673 40.65625,-41.10156 4.67389,-4.01661 10.61342,-10.99698 0.25196,21.41992 -2.30788,7.22045 13.49832,24.47785 17.08398,21.57813 52.83609,-42.72846 135.98438,-78.59571 135.98438,-78.5957 0,0 -37.2356,7.87522 -131.83203,51.31445 -8.69698,3.9937 12.99414,-35.70703 12.99414,-35.70703 0,0 38.04929,-11.7482 34.33593,-17.05664 -26.45168,-37.814105 -28.03307,-22.683489 -57.74609,20.17968 -4.76662,6.8762 -0.44878,0.47571 -36.66797,30.33008 -4.88415,4.02585 2.1559,-14.45707 21.28125,-47.74219 0.72277,-1.25789 -0.24384,-5.990243 -0.89062,-6.835933 -3.33005,-4.354178 -7.93422,-10.322643 -9.69727,-9.753906 -5.58614,1.802013 -33.99531,24.607489 -39.52148,30.656249 -5.85739,6.41128 6.57744,-19.21252 5.4082,-23.855468 -1.17005,-4.646145 -8.97471,-9.335995 -9.45508,-9.011719 -12.83339,8.663275 -65.10972,59.924657 -63.6582,55.962887 15.0804,-41.16045 21.16957,-38.78416 4.92383,-49.916012 -2.60348,-1.783943 -5.94532,10.990232 -5.94532,10.990232 -17.58876,15.54766 -57.24529,51.31824 -57.78515,50.59766 -4.12838,-5.51037 53.30509,-117.075738 56.83789,-122.207032 3.31201,-4.81059 -4.18629,-21.640219 -7.54492,-21.484376 z m 181.73437,86.730469 c 0.66956,0.107486 7.14773,3.031329 7.03125,3.976559 -0.14255,1.15687 -17.17977,7.97521 -17.52148,7.52539 -0.3417,-0.44982 9.82066,-11.609435 10.49023,-11.501949 z"
     id="path6017"
     inkscape:connector-curvature="0" />
  <path
     style="fill:#005aff;fill-opacity:1;stroke:none;stroke-width:1px;stroke-linecap:butt;stroke-linejoin:miter;stroke-opacity:1"
     d="m 76.936937,268.33333 c 4.148373,-27.16955 31.336633,-31.23727 56.056673,-33.97046 12.20389,-1.34933 21.80635,-4.91062 28.76315,-6.3899 258.67638,-55.00455 438.71726,-33.7354 458.15315,-33.73874 0,0 -143.34903,0.0904 -270.95857,13.8124 -143.34872,15.41445 -273.003761,66.76645 -272.014403,60.2867 z"
     id="path6078"
     inkscape:connector-curvature="0"
     sodipodi:nodetypes="ssscss" />
</svg>
